<?xml version="1.0" standalone="no"?>
<!DOCTYPE svg PUBLIC "-//W3C//DTD SVG 20010904//EN"
 "http://www.w3.org/TR/2001/REC-SVG-20010904/DTD/svg10.dtd">
<svg version="1.0" xmlns="http://www.w3.org/2000/svg"
 width="238.000000pt" height="238.000000pt" viewBox="0 0 238.000000 238.000000"
 preserveAspectRatio="xMidYMid meet">
<metadata>
Created by potrace 1.14, written by Peter Selinger 2001-2017
</metadata>
<g transform="translate(0.000000,238.000000) scale(0.100000,-0.100000)"
fill="#000000" stroke="none">
<path d="M1083 2315 c-11 -8 -23 -11 -27 -8 -11 11 -36 12 -42 1 -4 -6 0 -14
7 -19 10 -7 6 -8 -13 -5 -15 2 -29 -1 -32 -7 -3 -7 -3 -1 0 12 6 21 4 22 -9
10 -8 -8 -12 -18 -9 -23 3 -5 -1 -5 -9 0 -25 15 -42 14 -28 -2 9 -12 6 -12
-20 -3 -18 6 -35 9 -38 5 -4 -3 1 -6 10 -6 9 0 19 -5 22 -10 4 -6 1 -9 -7 -8
-7 2 -12 -3 -10 -10 1 -8 -2 -11 -8 -7 -6 3 -8 11 -5 16 9 14 -2 11 -19 -7 -9
-9 -16 -11 -16 -4 0 6 -5 8 -10 5 -6 -4 -7 -12 -3 -18 4 -7 0 -6 -10 2 -15 12
-17 11 -17 -4 0 -12 -6 -16 -20 -12 -20 5 -46 -16 -36 -31 3 -5 -1 -9 -9 -9
-8 0 -11 5 -8 11 4 6 0 5 -9 -1 -8 -7 -19 -9 -24 -5 -4 4 -2 -2 6 -12 14 -18
14 -19 -7 -7 -20 10 -22 9 -16 -5 4 -12 3 -15 -5 -10 -8 4 -16 -2 -21 -16 -6
-13 -10 -17 -10 -10 -1 6 -6 12 -12 12 -5 0 -7 -4 -4 -10 3 -5 1 -10 -5 -10
-6 0 -8 -4 -5 -10 3 -5 -2 -10 -13 -10 -10 0 -27 -9 -37 -20 -10 -11 -22 -17
-26 -14 -5 3 -6 -2 -3 -10 4 -9 1 -16 -6 -16 -9 0 -9 -4 1 -17 13 -15 12 -15
-9 -4 -12 6 -22 8 -21 4 3 -20 -2 -34 -11 -28 -5 3 -10 -1 -10 -10 0 -11 -5
-15 -16 -11 -8 3 -12 2 -9 -3 3 -5 1 -13 -5 -16 -8 -5 -8 -11 0 -20 10 -12 7
-13 -10 -10 -18 3 -21 0 -17 -15 3 -13 1 -17 -9 -13 -9 3 -14 -2 -14 -16 0
-13 -6 -21 -16 -21 -13 0 -14 -3 -5 -14 13 -15 -1 -32 -18 -22 -5 4 -8 -5 -6
-19 2 -22 0 -23 -13 -13 -13 11 -14 11 -8 -1 5 -8 3 -17 -5 -22 -12 -7 -12 -9
0 -9 10 0 11 -3 2 -14 -6 -7 -12 -25 -13 -39 -1 -14 -6 -23 -10 -21 -4 3 -4
12 -1 22 4 13 2 13 -10 -3 -10 -13 -12 -22 -5 -26 7 -4 6 -9 -2 -14 -6 -4 -9
-14 -6 -22 5 -11 2 -13 -11 -9 -10 4 -14 4 -10 0 4 -4 1 -14 -6 -23 -10 -14
-10 -14 5 -3 13 11 18 11 24 0 4 -7 4 -10 0 -6 -5 4 -14 1 -21 -5 -10 -9 -10
-17 -2 -32 9 -17 8 -18 -5 -8 -12 10 -15 10 -15 -2 0 -8 4 -15 9 -15 4 0 0 -9
-9 -20 -20 -23 -25 -48 -11 -57 7 -3 8 -1 4 5 -5 8 -1 10 9 5 13 -4 14 -8 4
-13 -7 -5 -18 -6 -25 -3 -6 2 -15 -1 -20 -8 -4 -7 -3 -10 3 -6 6 4 19 0 29 -8
19 -15 19 -15 0 -8 -16 5 -18 3 -13 -16 5 -19 3 -20 -10 -9 -15 12 -15 11 -4
-9 9 -18 9 -23 -1 -23 -6 0 -3 -7 8 -16 10 -8 14 -13 7 -10 -6 4 -14 2 -18 -4
-3 -5 -1 -10 5 -10 8 0 7 -6 -1 -21 -9 -17 -8 -20 3 -13 11 6 11 5 0 -8 -10
-13 -10 -17 0 -21 10 -4 10 -6 -1 -6 -11 -1 -11 -4 0 -18 10 -11 10 -14 1 -9
-6 4 -12 2 -12 -3 0 -6 6 -11 13 -11 9 0 8 -3 -2 -9 -9 -6 -10 -11 -2 -15 6
-4 8 -13 4 -19 -12 -19 -12 -37 0 -37 8 0 7 -4 -1 -12 -7 -7 -12 -17 -12 -23
0 -5 5 -3 10 5 9 13 10 13 10 0 0 -9 -6 -22 -12 -29 -10 -11 -10 -13 0 -7 6 4
12 2 12 -5 0 -8 5 -7 18 2 15 13 16 12 3 -3 -7 -10 -17 -16 -21 -13 -5 3 -12
1 -15 -5 -4 -6 -3 -10 2 -9 29 5 33 -3 12 -22 -13 -11 -19 -18 -14 -16 6 3 22
-3 35 -14 20 -15 21 -18 5 -12 -17 6 -18 4 -8 -9 7 -8 10 -18 6 -21 -3 -4 -1
-7 7 -7 10 0 10 -3 1 -14 -9 -11 -9 -16 0 -22 8 -5 9 -3 4 6 -5 8 -4 11 3 7 5
-4 8 -16 5 -27 -4 -16 -2 -19 13 -14 18 5 18 5 1 -6 -9 -6 -17 -16 -17 -22 0
-6 7 -5 18 3 9 7 14 10 10 5 -4 -4 -3 -19 2 -32 7 -17 6 -24 -3 -24 -6 0 -4
-5 6 -11 9 -6 14 -15 11 -21 -5 -8 -1 -9 10 -5 14 5 15 3 6 -13 -7 -13 -7 -21
2 -26 7 -5 8 -3 3 6 -5 9 -4 11 4 6 9 -6 9 -11 -1 -24 -10 -12 -10 -14 -1 -8
9 4 13 1 13 -10 0 -13 3 -14 14 -5 11 9 12 6 8 -15 -4 -21 -2 -25 9 -19 11 7
11 5 -1 -11 -8 -10 -11 -16 -6 -12 4 3 19 -3 32 -14 19 -18 21 -24 11 -37 -9
-12 -9 -13 1 -7 11 7 17 -5 13 -28 -1 -5 6 -3 15 5 16 12 17 12 11 -3 -3 -10
-2 -18 3 -18 6 0 10 -8 10 -17 0 -16 2 -16 11 -3 9 12 10 11 6 -7 -3 -14 -1
-20 8 -17 7 3 15 -5 19 -20 3 -14 11 -26 17 -26 8 0 8 4 0 14 -8 10 -9 16 -1
21 6 4 10 3 9 -2 -1 -4 0 -11 1 -15 1 -5 3 -13 4 -20 0 -6 7 -13 15 -16 9 -3
11 0 6 8 -5 8 -4 11 3 6 6 -4 9 -13 6 -20 -6 -15 21 -40 35 -32 5 4 13 1 17
-5 5 -8 3 -9 -6 -4 -9 6 -11 4 -6 -4 5 -7 15 -10 23 -6 14 5 14 3 2 -12 -13
-15 -12 -16 8 -11 23 6 26 1 24 -32 0 -9 2 -10 5 -3 4 9 11 9 29 1 14 -6 21
-16 18 -22 -4 -6 0 -5 9 2 14 11 18 10 30 -5 7 -10 24 -27 38 -38 20 -16 22
-16 11 -2 -12 15 -12 17 3 11 9 -3 16 -14 16 -23 0 -14 2 -14 10 -1 8 13 14 8
12 -11 -1 -3 5 -6 13 -6 8 0 13 3 12 6 -1 3 3 7 8 8 6 1 8 -6 7 -15 -3 -13 -1
-14 11 -3 11 8 17 9 22 1 3 -6 11 -7 17 -4 7 4 8 2 4 -5 -6 -9 -11 -9 -22 0
-10 8 -14 8 -14 0 0 -6 6 -12 13 -12 6 -1 19 -2 27 -3 8 0 18 4 22 9 5 6 8 5
8 -2 0 -7 5 -13 11 -13 5 0 7 5 3 12 -4 7 -3 8 4 4 7 -4 12 -14 12 -22 0 -14
2 -13 16 0 19 20 21 20 21 1 0 -8 -5 -11 -10 -8 -6 3 -7 1 -3 -5 5 -9 13 -9
29 0 19 9 20 9 12 -3 -5 -8 -3 -7 6 3 15 15 18 16 23 2 4 -10 2 -13 -6 -8 -7
5 -8 3 -3 -5 5 -9 10 -10 18 -2 13 13 30 15 23 2 -7 -11 13 -9 31 2 8 5 13 3
13 -4 0 -8 4 -8 13 -1 8 7 18 7 27 2 9 -6 17 -5 22 3 6 9 8 8 8 -3 0 -13 1
-13 10 0 7 10 10 11 10 2 0 -9 7 -8 28 4 20 12 22 12 9 1 -17 -14 -17 -15 7
-13 13 0 22 4 19 9 -7 11 12 8 24 -4 7 -7 14 -6 24 4 8 7 20 12 28 9 8 -3 11
0 7 7 -11 17 5 13 19 -5 11 -15 12 -14 11 6 -1 13 5 24 12 26 7 1 8 0 2 -3 -5
-2 -10 -9 -10 -14 0 -6 8 -5 20 1 11 6 20 7 20 3 0 -4 5 0 11 10 10 17 12 17
29 2 16 -14 18 -14 24 0 4 11 2 14 -6 9 -7 -4 -8 -3 -4 4 4 6 14 8 24 5 15 -6
16 -5 2 12 -15 18 -14 18 13 0 21 -13 27 -15 25 -4 -2 9 4 13 16 11 11 -2 15
1 11 7 -3 6 -1 11 5 11 6 0 8 5 4 11 -5 8 -1 8 14 0 15 -8 23 -8 28 1 5 7 3 8
-7 3 -8 -5 -10 -4 -6 0 7 9 13 11 51 18 10 2 24 10 30 18 12 16 46 33 59 30 4
-1 2 9 -4 21 -11 21 -11 22 4 9 12 -9 17 -10 17 -2 0 7 5 9 13 5 9 -6 9 -5 -1
8 -10 13 -9 15 14 12 19 -2 24 1 20 13 -5 11 -2 13 10 9 15 -6 15 -4 3 11 -9
11 -10 14 -1 9 7 -4 12 -2 12 6 0 9 3 9 10 -2 8 -13 10 -12 10 3 0 9 7 17 16
17 8 0 12 5 9 10 -3 6 1 13 10 16 13 6 14 8 3 15 -9 6 -6 9 11 9 13 0 22 3 18
6 -3 4 4 15 16 25 18 16 19 18 3 12 -16 -5 -15 -2 5 22 13 15 29 33 36 40 7 7
9 16 5 21 -4 5 2 2 12 -6 11 -8 17 -10 13 -3 -4 6 -3 15 3 18 8 5 7 12 -2 23
-7 9 -8 13 -2 9 7 -4 17 0 24 8 7 8 17 12 23 8 6 -3 7 -1 3 6 -4 6 -12 9 -17
6 -5 -3 -6 1 -3 9 3 9 10 16 15 16 5 0 9 7 9 16 0 9 -5 12 -12 8 -7 -5 -8 -3
-3 5 4 7 16 10 27 8 19 -5 19 -4 3 13 -12 14 -13 20 -4 26 8 4 10 3 5 -4 -4
-7 -3 -12 2 -12 13 0 20 30 17 70 -2 18 1 27 5 21 9 -16 18 4 15 36 -1 13 3
19 11 16 13 -5 14 14 1 34 -6 9 -3 11 10 7 16 -5 15 -3 -2 11 -20 16 -20 17 4
13 14 -2 25 2 27 10 1 7 0 8 -2 3 -3 -6 -12 -7 -20 -4 -11 4 -8 10 11 25 24
19 24 20 7 46 -9 14 -11 23 -4 19 6 -5 12 -5 13 0 0 4 2 18 3 30 2 14 -2 20
-8 16 -6 -4 -5 1 3 10 11 14 11 17 0 17 -11 0 -11 2 1 10 13 9 13 10 0 10 -13
0 -13 1 0 10 10 6 11 10 3 10 -7 0 -13 5 -13 11 0 5 4 8 8 5 10 -6 9 30 -1 40
-4 4 -2 13 4 21 9 9 8 13 0 13 -9 0 -9 5 -1 20 8 14 8 20 0 20 -6 0 -8 5 -3
13 13 21 12 39 -2 33 -8 -3 -17 -1 -20 5 -4 5 -1 8 7 7 14 -3 14 5 2 36 -5 14
-4 17 4 12 16 -10 15 -1 -1 16 -20 21 -37 86 -23 93 8 3 8 7 -1 11 -7 3 -13
12 -13 20 0 9 5 12 11 9 6 -4 5 2 -2 13 -7 12 -17 18 -21 16 -4 -3 -8 -1 -8 5
0 5 6 12 13 14 6 3 2 6 -10 6 -13 1 -23 6 -23 12 0 5 4 8 8 5 5 -3 9 1 9 9 0
8 -5 11 -10 8 -5 -3 -8 0 -5 8 2 7 -4 22 -13 33 -10 10 -16 23 -13 28 3 4 0 8
-7 8 -8 0 -8 4 1 15 10 13 9 15 -11 16 -22 0 -23 1 -4 9 l20 9 -20 1 c-11 2
-23 2 -26 2 -3 -1 -6 5 -6 13 0 8 4 12 9 9 4 -3 8 -1 8 4 0 5 -10 14 -22 21
-13 6 -15 9 -6 7 12 -3 15 -1 11 9 -3 8 -9 12 -14 9 -5 -3 -9 2 -9 10 0 10 -9
16 -22 17 -13 0 -17 3 -10 6 13 5 17 24 5 22 -23 -4 -33 4 -33 25 0 15 -7 26
-20 29 -13 3 -18 11 -14 21 4 11 1 14 -15 11 -12 -2 -19 0 -16 5 7 11 -5 40
-17 40 -5 0 -7 -4 -4 -8 3 -5 -1 -9 -8 -9 -8 0 -12 6 -9 14 3 7 0 13 -7 13
-10 0 -10 3 0 15 8 9 9 15 2 15 -6 0 -14 -4 -17 -10 -4 -6 -11 -5 -20 3 -9 8
-10 16 -3 25 8 9 7 11 -6 6 -9 -4 -16 -1 -16 6 0 9 -4 9 -17 -1 -10 -7 -15
-10 -12 -6 4 5 -5 20 -18 34 -21 20 -28 22 -35 11 -7 -9 -8 -7 -5 9 3 13 -1
24 -9 27 -9 3 -11 -1 -8 -12 3 -9 -1 -7 -8 6 -11 17 -16 20 -26 10 -9 -9 -12
-8 -12 4 0 9 -5 20 -12 24 -7 4 -8 3 -4 -4 4 -7 3 -12 -2 -12 -6 0 -13 7 -16
16 -3 8 -10 12 -16 9 -5 -3 -10 -1 -10 4 0 14 -32 14 -48 1 -9 -7 -9 -7 -2 2
6 7 10 19 10 27 0 11 -4 10 -15 -5 -14 -19 -15 -19 -21 4 -5 18 -9 20 -20 11
-11 -9 -14 -8 -14 1 0 10 -3 10 -14 1 -11 -10 -19 -7 -35 10 -20 22 -57 36
-45 18 3 -5 0 -9 -5 -9 -6 0 -11 5 -11 10 0 6 -5 10 -11 10 -5 0 -7 -4 -4 -10
9 -15 -2 -12 -19 6 -9 8 -16 11 -16 5 0 -6 -7 -11 -15 -11 -8 0 -15 5 -15 10
0 7 -6 7 -18 1 -10 -5 -23 -6 -29 -3 -14 9 -82 7 -90 -2 -4 -3 -13 0 -21 7
-10 8 -13 8 -9 1 4 -7 0 -15 -9 -18 -23 -9 -31 -7 -14 4 8 5 12 11 9 14 -3 3
-14 -1 -26 -9z m330 -18 c3 -8 -1 -14 -8 -14 -7 0 -11 6 -8 14 3 7 6 13 8 13
2 0 5 -6 8 -13z m-841 -233 c-12 -8 -19 -20 -16 -26 5 -7 2 -8 -5 -4 -9 6 -8
13 5 27 9 10 22 19 28 19 6 0 0 -7 -12 -16z m1598 -478 c0 -3 -4 -8 -10 -11
-5 -3 -10 -1 -10 4 0 6 5 11 10 11 6 0 10 -2 10 -4z m-1930 -96 c0 -5 -5 -10
-11 -10 -5 0 -7 5 -4 10 3 6 8 10 11 10 2 0 4 -4 4 -10z m1980 -455 c0 -1 -6
-8 -14 -14 -11 -9 -16 -9 -22 0 -5 8 -3 9 6 4 10 -6 12 -4 7 8 -4 11 -2 14 9
10 7 -3 14 -6 14 -8z m-1985 -35 c3 -5 2 -10 -4 -10 -5 0 -13 5 -16 10 -3 6
-2 10 4 10 5 0 13 -4 16 -10z m350 -599 c3 -5 2 -12 -3 -15 -5 -3 -9 1 -9 9 0
17 3 19 12 6z m1190 -71 c-3 -5 -12 -10 -18 -10 -7 0 -6 4 3 10 19 12 23 12
15 0z m-45 -34 c0 -3 -4 -8 -10 -11 -5 -3 -10 -1 -10 4 0 6 5 11 10 11 6 0 10
-2 10 -4z m-379 -149 c-10 -9 -11 -8 -5 6 3 10 9 15 12 12 3 -3 0 -11 -7 -18z"/>
<path d="M1755 2150 c3 -5 8 -10 11 -10 2 0 4 5 4 10 0 6 -5 10 -11 10 -5 0
-7 -4 -4 -10z"/>
<path d="M2190 1501 c0 -6 4 -13 10 -16 6 -3 7 1 4 9 -7 18 -14 21 -14 7z"/>
<path d="M2171 854 c0 -11 3 -14 6 -6 3 7 2 16 -1 19 -3 4 -6 -2 -5 -13z"/>
<path d="M370 596 c0 -2 7 -7 16 -10 8 -3 12 -2 9 4 -6 10 -25 14 -25 6z"/>
<path d="M2015 570 c-10 -11 -14 -20 -9 -20 5 0 15 9 22 20 7 11 11 20 9 20
-2 0 -12 -9 -22 -20z"/>
<path d="M726 267 c3 -10 9 -15 12 -12 3 3 0 11 -7 18 -10 9 -11 8 -5 -6z"/>
<path d="M1633 225 c0 -8 4 -12 9 -9 5 3 6 10 3 15 -9 13 -12 11 -12 -6z"/>
</g>
</svg>
