<?xml version="1.0" standalone="no"?>
<!DOCTYPE svg PUBLIC "-//W3C//DTD SVG 20010904//EN"
 "http://www.w3.org/TR/2001/REC-SVG-20010904/DTD/svg10.dtd">
<svg version="1.0" xmlns="http://www.w3.org/2000/svg"
 width="280.000000pt" height="280.000000pt" viewBox="0 0 280.000000 280.000000"
 preserveAspectRatio="xMidYMid meet">
<metadata>
Created by potrace 1.14, written by Peter Selinger 2001-2017
</metadata>
<g transform="translate(0.000000,280.000000) scale(0.100000,-0.100000)"
fill="#000000" stroke="none">
<path d="M0 2493 l0 -308 25 30 c13 17 24 38 25 47 0 9 5 20 11 24 22 13 -1
-48 -32 -85 -30 -37 -39 -81 -15 -81 7 0 26 12 41 26 22 20 26 32 23 57 -3 18
-3 38 -1 45 7 18 21 15 19 -5 0 -11 5 -17 14 -16 8 1 33 -20 55 -47 22 -27 45
-49 51 -49 6 -1 17 12 24 28 14 35 50 50 103 43 47 -5 49 13 5 52 -38 34 -83
46 -138 39 -47 -7 -54 9 -14 30 26 14 26 14 5 20 -17 4 -25 0 -33 -19 -13 -27
-28 -32 -28 -9 0 9 -9 33 -20 55 -26 50 -16 78 42 117 53 35 64 57 79 157 11
71 15 80 43 97 17 10 39 19 49 19 11 0 30 9 43 19 25 20 24 20 -176 21 l-200
1 0 -308z m230 193 c0 -7 -7 -19 -15 -26 -12 -10 -15 -9 -15 7 0 11 3 23 7 26
11 12 23 8 23 -7z m-80 -81 c-10 -11 -10 -19 -2 -27 16 -16 4 -37 -55 -101
-51 -56 -65 -89 -43 -102 6 -3 10 -14 10 -23 0 -13 -2 -13 -15 4 -23 30 -18
52 25 116 22 33 40 71 40 84 0 30 20 64 39 64 11 0 11 -3 1 -15z m-30 -274
c16 -31 12 -37 -10 -13 -22 23 -25 32 -10 32 5 0 14 -9 20 -19z m180 -111 c0
-5 -11 -10 -25 -10 -13 0 -28 -8 -34 -17 -9 -17 -10 -17 -17 1 -4 11 -2 21 7
27 19 12 69 11 69 -1z"/>
<path d="M538 2793 c7 -3 16 -2 19 1 4 3 -2 6 -13 5 -11 0 -14 -3 -6 -6z"/>
<path d="M628 2793 c7 -3 16 -2 19 1 4 3 -2 6 -13 5 -11 0 -14 -3 -6 -6z"/>
<path d="M889 2776 c29 -31 43 -90 29 -125 -6 -14 -15 -73 -19 -131 -9 -140
-13 -156 -51 -242 -45 -103 -83 -164 -140 -230 -27 -32 -47 -61 -44 -66 3 -5
-1 -26 -9 -48 -8 -21 -14 -46 -14 -54 0 -8 9 8 18 36 26 71 49 115 79 147 24
25 32 27 102 27 42 0 125 -3 183 -7 l107 -6 0 -37 c0 -126 48 -236 125 -285
72 -46 178 -86 231 -87 58 -1 99 31 176 138 51 70 61 79 85 76 16 -2 33 -9 40
-15 7 -7 17 -64 23 -127 18 -187 20 -197 43 -231 13 -18 59 -54 108 -83 l87
-51 7 -107 c9 -128 13 -111 -161 -623 -173 -513 -189 -550 -256 -589 -24 -13
-53 -27 -65 -31 -26 -7 -100 23 -238 99 -244 133 -422 227 -540 285 -154 76
-221 133 -255 217 -13 30 -25 53 -27 50 -11 -11 76 -173 107 -199 18 -16 137
-81 264 -144 127 -63 239 -122 248 -131 25 -22 22 -53 -12 -129 -17 -36 -30
-67 -30 -69 0 -2 385 -3 855 -4 l855 0 0 1400 0 1400 -161 0 c-156 0 -161 -1
-156 -20 7 -26 0 -25 -24 3 -18 21 -18 21 -19 1 0 -11 5 -25 11 -31 5 -5 12
-32 14 -59 2 -38 -3 -61 -24 -104 -16 -30 -32 -66 -36 -80 -10 -32 -89 -194
-103 -211 -7 -8 -22 -27 -35 -44 l-24 -29 4 54 c4 41 14 68 39 105 42 63 45
94 3 37 -18 -25 -39 -42 -51 -42 -13 0 -18 5 -15 14 3 8 9 31 13 51 5 29 14
40 45 56 39 19 52 50 28 65 -11 6 -9 23 9 82 15 44 -2 41 -33 -8 -40 -63 -73
-53 -53 16 6 21 11 41 11 44 0 3 -3 19 -6 37 -5 26 -3 33 13 38 39 13 19 25
-41 25 -52 0 -60 -2 -55 -16 35 -91 29 -804 -6 -840 -4 -3 -46 8 -94 25 -47
17 -94 31 -103 31 -9 0 -36 -14 -61 -30 -62 -41 -87 -39 -129 11 -34 42 -50
88 -51 149 0 31 -14 49 -113 151 -129 134 -139 138 -242 109 -37 -11 -69 -21
-71 -22 -1 -2 31 -3 71 -3 59 0 77 -4 95 -20 29 -26 103 -135 97 -142 -3 -3
-34 5 -69 17 -158 55 -376 79 -396 44 -6 -11 -47 -24 -122 -40 -62 -13 -114
-23 -116 -21 -2 1 11 30 28 64 32 65 47 151 48 273 0 36 5 81 10 100 8 25 7
53 -1 98 -10 57 -13 62 -37 62 l-25 0 22 -24z m1656 -172 c6 -37 -9 -94 -26
-94 -13 0 -11 18 2 26 7 4 9 24 5 55 -8 57 8 67 19 13z m-54 -81 c-12 -24 -21
-53 -21 -65 0 -11 -10 -36 -21 -55 -12 -19 -19 -36 -16 -39 2 -3 15 12 28 33
24 41 67 82 86 83 16 0 -13 -56 -32 -64 -8 -3 -26 -31 -40 -62 -29 -65 -30
-71 -11 -55 26 22 28 -8 4 -52 -18 -32 -29 -41 -45 -39 -16 2 -33 -12 -67 -55
-24 -32 -65 -77 -90 -101 l-46 -44 0 44 c0 36 5 46 28 62 28 18 118 153 109
162 -2 3 -14 -10 -25 -28 -40 -64 -77 -111 -89 -116 -27 -8 -11 35 46 122 66
103 151 257 151 274 0 7 10 33 22 59 l22 47 14 -34 c13 -31 12 -38 -7 -77z
m-1336 -283 c-3 -5 -13 -10 -21 -10 -8 0 -14 5 -14 10 0 6 9 10 21 10 11 0 17
-4 14 -10z m-111 -37 c7 -16 -6 -17 -23 0 -10 10 -11 9 -6 -5 5 -13 2 -17 -14
-15 -25 2 -27 13 -5 25 23 13 42 11 48 -5z m382 -19 c69 -20 70 -34 2 -22 -73
14 -161 4 -204 -21 -20 -12 -38 -20 -41 -17 -2 2 10 20 27 40 31 34 35 36 97
36 36 0 89 -7 119 -16z m-316 -30 c0 -11 -20 -14 -102 -13 -116 1 -115 5 4 23
90 13 98 12 98 -10z m389 -37 c109 -40 176 -135 152 -215 -6 -19 -8 -46 -5
-61 4 -21 -3 -38 -35 -78 -56 -70 -98 -89 -166 -74 -74 17 -184 73 -222 112
-32 34 -63 95 -63 124 0 24 32 18 65 -13 17 -15 38 -26 48 -24 10 2 26 0 35
-4 9 -4 23 -8 31 -10 7 -1 18 -7 23 -12 6 -6 23 -4 46 4 20 7 49 13 65 14 24
0 27 4 27 34 0 19 -4 37 -9 41 -5 3 -12 18 -16 33 -3 16 -15 34 -25 42 -11 8
-20 20 -20 27 0 7 -7 13 -15 13 -9 0 -15 9 -15 25 0 25 -14 33 -25 15 -3 -6
-31 -8 -63 -6 -31 2 -65 0 -74 -5 -12 -7 -18 -6 -18 1 0 12 39 29 95 39 52 11
117 3 184 -22z m-205 -87 c4 -5 5 -13 2 -19 -11 -17 -34 -13 -39 7 -4 14 -5
14 -6 -3 -1 -33 14 -48 43 -41 28 7 36 42 14 64 -9 9 -7 12 9 12 26 0 37 -29
29 -75 -5 -27 -13 -35 -36 -40 -42 -9 -66 1 -80 36 -18 42 0 83 33 74 12 -4
26 -11 31 -15z m117 -22 c30 -23 65 -85 53 -97 -7 -7 -115 -4 -122 4 -3 2 0
10 5 17 12 16 27 68 24 86 -3 17 6 15 40 -10z m322 -35 c3 -5 -10 -9 -29 -10
-19 -1 -32 3 -29 8 7 11 52 12 58 2z m297 -112 c16 -5 -4 -7 -51 -7 -86 1
-112 -13 -128 -68 l-9 -31 -1 28 c-1 19 9 38 28 58 26 25 36 29 83 28 29 -1
64 -4 78 -8z m278 -69 c24 -13 41 -26 38 -29 -3 -3 -11 -1 -18 4 -7 6 -52 28
-100 49 -49 20 -88 41 -88 45 0 9 95 -31 168 -69z m-193 43 c39 -17 21 -18
-25 0 -19 7 -28 14 -20 14 8 0 29 -6 45 -14z m-1 -29 c32 -20 32 -39 3 -130
-26 -80 -54 -105 -43 -38 3 25 2 43 -4 47 -6 4 -8 16 -4 27 4 14 2 18 -5 14
-14 -9 -41 17 -41 39 0 9 -5 13 -10 10 -12 -7 -40 18 -40 36 0 8 -7 5 -20 -6
-11 -10 -23 -15 -27 -12 -3 4 -15 0 -25 -10 -19 -17 -35 -12 -23 7 26 41 185
52 239 16z m126 -66 c48 -24 53 -33 45 -69 -5 -23 -17 -34 -63 -54 -31 -13
-60 -23 -64 -20 -4 2 1 27 12 56 11 29 20 64 20 80 0 32 0 32 50 7z m-270 -10
c24 -24 26 -57 4 -88 -17 -24 -22 -26 -44 -12 -12 7 -10 13 13 34 29 27 28 51
-5 62 -30 9 -53 -18 -39 -44 7 -14 8 -23 1 -27 -28 -17 -48 50 -23 78 21 23
68 22 93 -3z m-32 -28 c2 -7 -3 -12 -12 -12 -9 0 -16 7 -16 16 0 17 22 14 28
-4z m410 1 c-5 -25 -28 -28 -28 -4 0 12 6 21 16 21 9 0 14 -7 12 -17z m41 -36
c-15 -12 -30 -32 -33 -43 -4 -12 -15 -29 -26 -39 -11 -10 -29 -49 -41 -87 -27
-91 -60 -128 -119 -133 -41 -4 -42 -4 -11 4 62 16 84 42 112 127 15 45 37 90
53 106 14 15 26 33 26 41 0 7 11 19 25 25 14 6 25 17 25 23 0 7 3 9 8 5 4 -4
-5 -18 -19 -29z m-467 -62 c24 -14 67 -37 96 -51 51 -25 52 -26 32 -42 -17
-15 -18 -22 -9 -61 5 -24 7 -46 4 -50 -8 -7 -74 29 -132 73 -51 38 -69 72 -78
151 l-6 60 25 -27 c13 -15 44 -39 68 -53z m120 8 c6 -58 -2 -64 -41 -34 l-24
18 21 31 c12 16 22 36 22 43 0 8 3 9 9 4 5 -6 11 -34 13 -62z m258 13 c0 -6
-151 -76 -164 -75 -6 0 25 18 69 40 77 37 95 44 95 35z m-40 -74 c0 -24 -30
-104 -49 -131 -19 -26 -29 -31 -62 -31 l-39 0 1 43 c1 64 11 80 70 104 58 24
79 28 79 15z m-1037 -1448 c15 -5 12 -54 -3 -54 -35 0 -50 26 -28 48 14 14 12
14 31 6z m91 -59 c13 -20 14 -25 3 -25 -17 0 -49 34 -40 43 11 12 20 8 37 -18z"/>
<path d="M2350 2789 c0 -5 5 -7 10 -4 6 3 10 8 10 11 0 2 -4 4 -10 4 -5 0 -10
-5 -10 -11z"/>
<path d="M700 2762 c0 -6 12 -13 28 -17 33 -8 92 -46 92 -60 1 -19 51 -48 62
-37 13 13 -6 42 -27 42 -6 0 -20 10 -31 21 -27 30 -124 70 -124 51z"/>
<path d="M2375 2706 c-16 -25 -27 -136 -13 -136 14 0 31 44 32 84 1 23 6 49
10 59 12 26 -11 21 -29 -7z"/>
<path d="M540 2711 c-8 -5 -34 -12 -58 -16 -24 -4 -48 -15 -56 -26 -7 -11 -26
-22 -42 -25 -16 -3 -41 -14 -56 -24 -15 -11 -30 -20 -34 -20 -14 0 -33 -36
-34 -62 0 -19 -14 -40 -46 -70 -25 -24 -50 -44 -55 -46 -5 -2 -9 -12 -9 -21 0
-16 10 -18 83 -17 93 1 109 -6 131 -59 8 -19 26 -37 45 -44 17 -8 31 -19 32
-25 1 -23 61 -60 103 -62 22 -1 52 -5 67 -8 21 -6 34 2 87 52 34 33 62 66 62
73 0 8 -9 0 -19 -17 -21 -35 -54 -50 -128 -58 -50 -6 -103 7 -103 26 0 4 -4 8
-10 8 -14 0 -80 46 -120 84 -24 22 -50 35 -80 40 -65 11 -27 24 72 25 74 1 81
-1 172 -49 52 -27 104 -50 114 -50 19 0 131 78 132 92 0 4 -27 -11 -59 -34
-59 -41 -60 -41 -93 -25 -18 9 -46 20 -61 26 -15 6 -27 17 -27 24 0 9 -15 17
-38 21 -32 5 -38 10 -38 28 1 31 13 38 64 38 46 0 85 -21 134 -72 25 -27 58
-30 58 -6 0 6 -6 8 -14 5 -8 -3 -24 6 -37 19 -54 58 -145 87 -192 63 -13 -8
-22 -8 -30 0 -22 22 16 41 93 47 65 5 80 3 108 -15 17 -11 32 -29 32 -39 0
-22 40 -62 63 -62 34 0 27 23 -23 74 l-51 52 -97 3 c-103 2 -128 11 -93 33 22
14 28 42 11 53 -6 4 -22 0 -35 -9 -13 -9 -32 -16 -42 -15 -15 0 -14 2 3 9 12
5 25 13 29 19 3 6 33 11 66 11 33 0 68 4 78 9 12 7 35 4 77 -11 94 -34 148
-76 165 -126 8 -23 14 -31 22 -23 7 7 6 19 -3 41 -7 17 -15 28 -18 25 -3 -3
-16 11 -30 31 -23 35 -84 70 -101 59 -5 -3 -11 2 -15 10 -3 8 -17 15 -31 15
-14 0 -42 7 -62 15 -41 17 -43 17 -63 6z m-141 -94 c-2 -1 -13 -9 -24 -17 -19
-14 -19 -14 -6 3 7 9 18 17 24 17 6 0 8 -1 6 -3z"/>
<path d="M871 2593 c0 -10 4 -27 9 -38 7 -16 9 -13 9 18 1 20 -3 37 -9 37 -5
0 -10 -8 -9 -17z"/>
<path d="M550 2590 c0 -5 16 -10 35 -10 19 0 35 5 35 10 0 6 -16 10 -35 10
-19 0 -35 -4 -35 -10z"/>
<path d="M762 2528 c28 -40 40 -50 51 -39 10 10 -42 71 -61 71 -8 0 -5 -11 10
-32z"/>
<path d="M144 2448 l-19 -21 28 18 c28 18 33 25 19 25 -5 0 -17 -10 -28 -22z"/>
<path d="M548 2453 c7 -3 16 -2 19 1 4 3 -2 6 -13 5 -11 0 -14 -3 -6 -6z"/>
<path d="M870 2447 c0 -1 -4 -18 -10 -37 -9 -32 -8 -33 5 -16 14 19 21 56 10
56 -3 0 -5 -1 -5 -3z"/>
<path d="M215 2362 c16 -15 87 -23 82 -9 -2 7 -23 13 -48 15 -27 2 -40 0 -34
-6z"/>
<path d="M510 2333 c0 -13 33 -43 47 -43 13 0 38 29 31 36 -11 10 -78 16 -78
7z"/>
<path d="M781 2244 c-12 -26 -20 -49 -17 -52 3 -3 15 16 27 42 27 62 19 69
-10 10z"/>
<path d="M390 2203 c0 -5 11 -13 25 -20 27 -12 33 -5 13 15 -13 13 -38 16 -38
5z"/>
<path d="M672 2139 c-38 -34 -73 -37 -113 -8 -24 17 -34 19 -57 11 l-27 -10
28 -1 c15 -1 44 -12 63 -25 43 -29 72 -24 115 20 41 42 35 52 -9 13z"/>
<path d="M150 2141 c6 -12 10 -30 8 -40 -2 -10 4 -26 12 -36 23 -28 40 -105
27 -126 -15 -24 8 -78 25 -61 21 21 25 13 32 -48 8 -72 -4 -104 -37 -94 -12 3
-30 16 -39 28 -22 26 -23 18 -3 -20 21 -40 19 -65 -9 -102 -28 -38 -24 -74 18
-164 31 -67 31 -74 9 -86 -15 -9 -15 -15 -5 -50 7 -21 12 -50 12 -64 0 -33 26
-112 58 -175 27 -55 46 -70 38 -30 -19 91 -11 144 22 155 11 3 12 0 2 -17 -6
-12 -10 -45 -8 -74 l3 -52 17 30 c14 26 17 28 23 12 5 -11 1 -25 -9 -36 -35
-39 -9 -187 39 -214 14 -8 21 -37 9 -37 -11 0 -45 44 -60 78 -8 17 -16 32 -18
32 -10 0 -54 -109 -60 -150 -4 -24 -11 -49 -15 -55 -5 -5 -16 -27 -25 -49
l-16 -39 32 7 c18 3 44 19 58 35 14 16 35 32 47 35 11 4 24 18 27 31 4 14 13
25 22 25 26 0 6 -41 -49 -97 -28 -29 -56 -53 -62 -53 -7 0 -18 -12 -26 -27
-11 -20 -11 -27 -1 -30 22 -8 13 -32 -18 -48 -30 -15 -43 -39 -16 -29 8 3 23
1 33 -5 16 -9 14 -11 -15 -17 -18 -4 -35 -11 -38 -15 -3 -5 -15 -9 -27 -8
l-22 0 22 11 c14 7 23 20 23 34 0 13 4 26 10 29 5 3 9 20 8 38 -1 18 2 40 6
50 9 19 -9 23 -33 8 -10 -6 -11 -13 -2 -29 16 -30 14 -40 -10 -47 -19 -6 -19
-8 -4 -25 16 -17 15 -19 -17 -33 -18 -8 -45 -18 -60 -21 -19 -4 -28 -13 -28
-26 0 -19 2 -20 37 -5 20 8 38 13 40 11 3 -2 -5 -7 -16 -11 -12 -3 -21 -13
-21 -21 0 -18 8 -18 61 2 24 9 52 16 62 16 22 -1 87 63 87 86 1 9 7 28 15 42
l14 25 0 -25 c0 -50 -41 -113 -90 -140 -81 -44 -113 -73 -105 -97 4 -12 21
-26 38 -32 41 -15 41 -15 34 14 -8 31 5 57 40 79 26 18 26 17 19 -6 -4 -12
-14 -34 -23 -48 -9 -14 -17 -28 -18 -32 -1 -5 -3 -11 -4 -15 -1 -5 -2 -17 -1
-28 1 -11 -18 -74 -43 -140 -36 -98 -41 -121 -29 -123 9 -2 19 2 24 10 15 23
85 238 123 378 21 74 55 187 76 250 51 154 86 266 100 320 7 24 23 57 36 73
13 16 23 38 23 50 -1 21 -2 21 -6 2 -8 -30 -44 -65 -68 -65 -12 0 -34 9 -48
20 -28 22 -43 67 -75 214 l-19 88 27 72 c40 103 44 142 29 293 l-13 136 28 23
c32 28 62 31 88 7 18 -16 18 -16 12 0 -15 40 -71 41 -115 1 -15 -14 -17 -11
-23 22 -9 44 16 77 72 95 51 17 80 -9 102 -89 10 -35 25 -81 35 -102 17 -38
17 -40 -5 -81 -14 -29 -17 -39 -6 -30 8 7 20 27 26 46 9 27 7 42 -10 85 -25
62 -21 90 5 40 21 -40 46 -141 38 -153 -3 -5 3 -29 12 -53 17 -46 18 -163 1
-209 -7 -17 -5 -17 13 4 12 13 21 19 21 13 0 -20 -31 -97 -48 -117 -13 -15
-11 -15 9 3 52 46 72 227 39 355 -31 122 -36 197 -15 236 9 18 14 35 12 38 -8
7 -37 -41 -52 -83 l-12 -36 -20 33 c-12 19 -24 48 -28 66 -7 34 4 49 66 96
l24 17 -30 -12 c-16 -6 -40 -23 -53 -37 -21 -24 -24 -25 -36 -8 -20 26 -119
24 -146 -3 -25 -25 -27 -25 -26 3 1 18 -4 22 -27 19 -17 -2 -29 3 -33 13 -7
18 14 47 30 42 6 -3 19 0 29 5 52 27 -24 45 -79 19 -30 -15 -34 -20 -21 -27 8
-5 17 -25 19 -44 3 -33 1 -35 -27 -35 -25 0 -31 5 -33 25 -2 14 -7 34 -11 45
-5 11 -12 33 -17 49 -5 16 -15 31 -22 34 -11 3 -12 0 -2 -17z m150 -247 c0
-17 6 -53 14 -80 21 -76 25 -94 17 -94 -4 0 -15 26 -25 58 -10 31 -21 64 -23
72 -16 48 -20 79 -10 89 15 15 27 -5 27 -45z m-1 -218 c16 -64 16 -193 1 -231
l-12 -30 -14 45 c-22 70 -28 170 -14 229 14 60 22 57 39 -13z m-83 -93 l-15
-28 -1 46 c0 53 11 71 23 35 6 -17 3 -34 -7 -53z m441 0 c-3 -10 -5 -2 -5 17
0 19 2 27 5 18 2 -10 2 -26 0 -35z m-287 -23 c0 -33 -22 -94 -38 -104 -5 -3
-4 11 3 31 7 21 11 52 8 70 -4 26 -2 33 11 33 11 0 16 -9 16 -30z m-36 -154
c-3 -14 -10 -26 -15 -26 -12 0 -11 4 3 35 14 31 21 26 12 -9z m-92 -208 c-9
-9 -12 -7 -12 12 0 19 3 21 12 12 9 -9 9 -15 0 -24z m26 -58 c-2 -7 -10 1 -17
16 -12 27 -11 28 4 12 10 -9 16 -21 13 -28z m97 -100 c-3 -5 -11 -10 -16 -10
-6 0 -7 5 -4 10 3 6 11 10 16 10 6 0 7 -4 4 -10z m-10 -390 c-3 -5 -11 -10
-16 -10 -6 0 -7 5 -4 10 3 6 11 10 16 10 6 0 7 -4 4 -10z"/>
<path d="M420 2105 c0 -17 5 -25 13 -22 6 2 12 12 12 22 0 10 -6 20 -12 23 -8
2 -13 -6 -13 -23z"/>
<path d="M0 2005 c0 -61 5 -93 16 -110 12 -18 14 -42 11 -105 -3 -45 -10 -87
-16 -93 -22 -22 -12 -74 19 -109 36 -39 40 -61 5 -28 -14 13 -28 20 -32 17 -3
-4 2 -14 13 -21 18 -14 18 -15 1 -33 -22 -25 -23 -65 -2 -57 8 4 15 1 15 -5 0
-7 -7 -14 -15 -18 -13 -4 -16 -29 -14 -157 0 -83 4 -155 8 -161 4 -5 16 -32
26 -60 10 -27 25 -59 34 -70 16 -20 16 -20 -7 -1 -13 11 -31 38 -42 60 -14 32
-18 36 -19 18 -1 -27 41 -97 67 -111 21 -11 49 -68 38 -78 -3 -3 -27 16 -53
43 -46 47 -48 48 -51 24 -3 -18 5 -33 32 -57 38 -35 32 -44 -9 -17 -24 16 -25
16 -25 -9 0 -14 9 -31 23 -40 12 -8 19 -18 15 -22 -4 -4 -14 -2 -23 5 -13 11
-15 1 -15 -90 l0 -102 46 5 c51 5 68 21 51 49 -9 14 -9 23 1 38 7 12 10 25 7
29 -2 5 2 14 10 21 9 7 13 21 10 31 -5 14 2 23 29 36 42 19 42 22 17 71 -11
21 -17 49 -14 63 3 17 -2 31 -16 43 -12 11 -21 25 -21 32 0 16 57 64 76 64 20
0 18 13 -12 78 -38 85 -39 87 -66 90 -31 4 -99 63 -80 70 8 2 19 -1 25 -7 15
-15 62 -14 76 2 8 11 5 19 -15 38 -14 13 -32 40 -40 59 -8 19 -25 45 -36 57
-19 20 -19 23 -4 23 9 0 30 -7 46 -15 18 -9 30 -11 30 -5 0 6 -6 13 -14 16 -7
3 -21 23 -31 45 -10 21 -21 39 -24 39 -14 0 -32 59 -23 77 28 53 38 141 33
282 -2 41 -34 125 -52 137 -5 3 -9 -33 -9 -81z m104 -1183 c2 -4 1 -14 -4 -22
-7 -11 -12 -12 -21 -3 -6 6 -8 16 -5 22 8 13 23 14 30 3z m-34 -72 c13 -8 13
-10 -2 -10 -9 0 -20 5 -23 10 -8 13 5 13 25 0z m-35 -50 c3 -5 2 -10 -4 -10
-5 0 -13 5 -16 10 -3 6 -2 10 4 10 5 0 13 -4 16 -10z"/>
<path d="M649 2057 c-20 -17 -49 -40 -63 -50 -20 -14 -26 -26 -24 -45 5 -46
31 -35 75 31 39 58 60 97 52 97 -2 0 -20 -15 -40 -33z"/>
<path d="M90 2064 c0 -24 19 -54 36 -54 8 0 19 -11 25 -24 9 -20 7 -35 -11
-79 -26 -63 -22 -87 15 -87 14 0 25 -4 25 -10 0 -13 27 -13 35 1 4 6 -3 21
-16 35 -17 18 -23 37 -24 77 -1 56 -18 107 -35 107 -6 0 -15 11 -20 25 -11 28
-30 34 -30 9z"/>
<path d="M1 1794 c0 -11 3 -14 6 -6 3 7 2 16 -1 19 -3 4 -6 -2 -5 -13z"/>
<path d="M490 1758 c-12 -22 -12 -22 6 -6 10 10 15 20 12 24 -4 3 -12 -5 -18
-18z"/>
<path d="M586 1718 c-3 -13 -17 -36 -32 -53 -15 -17 -23 -23 -20 -12 7 24 -1
21 -15 -4 -8 -17 -8 -20 1 -14 8 5 11 3 8 -6 -3 -8 -10 -13 -16 -12 -6 2 -11
-5 -10 -15 0 -9 -3 -32 -7 -51 -6 -25 -5 -32 3 -27 7 4 12 18 12 32 0 23 71
140 94 156 8 5 8 10 0 18 -9 9 -13 5 -18 -12z"/>
<path d="M585 1400 c-3 -5 -1 -10 4 -10 6 0 11 5 11 10 0 6 -2 10 -4 10 -3 0
-8 -4 -11 -10z"/>
<path d="M1610 1292 c-80 -30 -91 -48 -40 -70 34 -15 50 -9 50 18 0 10 14 27
30 37 31 18 39 34 18 32 -7 0 -33 -8 -58 -17z"/>
<path d="M1825 1282 c0 -23 -9 -31 -57 -56 -46 -23 -58 -33 -58 -52 0 -27 5
-29 37 -11 55 31 112 124 85 141 -4 2 -8 -7 -7 -22z"/>
<path d="M1491 1213 c-1 -12 4 -25 9 -28 12 -7 12 2 0 30 -8 19 -9 19 -9 -2z"/>
<path d="M430 1101 c0 -10 7 -22 16 -25 26 -10 28 0 5 23 -20 20 -21 20 -21 2z"/>
<path d="M1730 1110 c-23 -7 -23 -8 -3 -9 12 -1 25 4 28 9 3 6 5 10 3 9 -2 -1
-14 -5 -28 -9z"/>
<path d="M216 1020 c-21 -52 -20 -79 2 -87 9 -4 20 -11 23 -16 3 -5 16 11 27
34 18 36 19 45 8 51 -8 4 -17 19 -20 33 -9 36 -21 31 -40 -15z"/>
<path d="M1532 980 c-13 -6 -77 -55 -142 -109 -65 -55 -128 -105 -140 -111
-20 -11 -19 -13 26 -63 52 -57 124 -163 124 -182 0 -19 32 -42 70 -50 19 -4
65 -24 102 -46 36 -21 78 -39 92 -39 47 0 69 60 45 128 -10 28 -8 35 14 62 31
36 42 111 33 217 -7 93 -25 129 -68 138 -18 4 -42 18 -53 31 -23 27 -69 38
-103 24z m18 -83 c0 -7 -9 -13 -20 -13 -22 0 -27 12 -7 19 21 9 27 8 27 -6z
m160 -37 c0 -5 -2 -10 -4 -10 -3 0 -8 5 -11 10 -3 6 -1 10 4 10 6 0 11 -4 11
-10z m-73 -96 c16 -21 23 -42 23 -75 0 -65 -13 -73 -72 -43 -27 14 -86 39
-131 55 -70 26 -115 49 -96 49 3 0 37 11 75 25 95 35 167 31 201 -11z m87
-148 c-3 -9 -10 -16 -15 -16 -5 0 -4 9 3 20 14 22 21 20 12 -4z m-75 -52 c12
-15 21 -31 21 -37 0 -13 -38 21 -51 45 -15 28 7 22 30 -8z m-119 -64 c13 -9
13 -10 0 -10 -8 0 -22 5 -30 10 -13 9 -13 10 0 10 8 0 22 -5 30 -10z"/>
<path d="M12 598 c-20 -20 -15 -48 11 -48 32 0 50 14 45 36 -4 22 -38 30 -56
12z"/>
</g>
</svg>
